<svg width="20" height="20" viewBox="0 0 20 20" fill="none" xmlns="http://www.w3.org/2000/svg">
<circle cx="10" cy="10" r="10" fill="white"/>
<path d="M8.16406 7.74023H9.23047V7.19336C9.23047 6.58268 9.29427 6.12695 9.42188 5.82617C9.55404 5.52539 9.79329 5.28158 10.1396 5.09473C10.4906 4.90332 10.9326 4.80762 11.4658 4.80762C12.0127 4.80762 12.5482 4.88965 13.0723 5.05371L12.8125 6.39355C12.5072 6.32064 12.2132 6.28418 11.9307 6.28418C11.6527 6.28418 11.4521 6.35026 11.3291 6.48242C11.2106 6.61003 11.1514 6.8584 11.1514 7.22754V7.74023H12.5869V9.25098H11.1514V15H9.23047V9.25098H8.16406V7.74023Z" fill="#8DCAEC"/>
</svg>
