<?xml version="1.0"?>
<svg xmlns="http://www.w3.org/2000/svg" xmlns:xlink="http://www.w3.org/1999/xlink" xmlns:svgjs="http://svgjs.com/svgjs" version="1.1" width="512" height="512" x="0" y="0" viewBox="0 0 512 512" style="enable-background:new 0 0 512 512" xml:space="preserve" class=""><g><g xmlns="http://www.w3.org/2000/svg"><path d="m512 0h-256l-100 256 100 256h256z" fill="#52a3cc" data-original="#4175df" style="" class=""/><path d="m0 0h256v512h-256z" fill="#4086f4" data-original="#4086f4" style="" class=""/><path d="m256 60-98 206.496 98 185.504c108.248 0 196-87.752 196-196s-87.752-196-196-196z" fill="#e3e7ea" data-original="#e3e7ea" style="" class=""/><path d="m60 256c0 108.248 87.752 196 196 196v-392c-108.248 0-196 87.752-196 196z" fill="#ffffff" data-original="#ffffff" style="" class=""/><path d="m422 60h30v30h-30z" fill="#e3e7ea" data-original="#e3e7ea" style="" class=""/><path d="m60 60h30v30h-30z" fill="#ffffff" data-original="#ffffff" style="" class=""/><path d="m422 422h30v30h-30z" fill="#e3e7ea" data-original="#e3e7ea" style="" class=""/><path d="m60 422h30v30h-30z" fill="#ffffff" data-original="#ffffff" style="" class=""/><path d="m256 168.5-20 15 20 15c13.558 0 26.479 4.718 36.8 13.335l19.2-23.042c-15.707-13.114-35.37-20.293-56-20.293z" fill="#52a3cc" data-original="#4175df" style="" class=""/><path d="m256 241v30h55.516c-6.615 24.454-28.998 42.5-55.516 42.5l-20 16.364 20 13.636c48.248 0 87.5-39.252 87.5-87.5v-15z" fill="#52a3cc" data-original="#4175df" style="" class=""/><path d="m198.5 256c0-31.706 25.794-57.5 57.5-57.5v-30c-48.248 0-87.5 39.252-87.5 87.5s39.252 87.5 87.5 87.5v-30c-31.706 0-57.5-25.794-57.5-57.5z" fill="#4086f4" data-original="#4086f4" style="" class=""/></g></g></svg>
