<svg xmlns="http://www.w3.org/2000/svg" xmlns:xlink="http://www.w3.org/1999/xlink" version="1.1" x="0px" y="0px" viewBox="0 0 100 125" style="enable-background:new 0 0 100 100;" xml:space="preserve"><symbol viewBox="-26.685 -17.288 43.333 36.197"><path style="" d="M2.649,9.742c0-4.234-3.432-7.667-7.667-7.667   s-7.667,3.432-7.667,7.667s3.432,7.667,7.667,7.667S2.649,13.976,2.649,9.742z" fill="none" stroke="#000000" stroke-width="3" stroke-miterlimit="10"/><path style="" d="   M-20.851-15.258l3.474,9.888c0.515,1.465,1.898,2.445,3.451,2.445H4.203c1.563,0,2.953-0.993,3.46-2.471l3.153-9.195" fill="none" stroke="#000000" stroke-width="3" stroke-linecap="round" stroke-linejoin="round" stroke-miterlimit="10"/><g><line style="" x1="-12.351" y1="-10.925" x2="-13.685" y2="-15.258" fill="none" stroke="#000000" stroke-width="3" stroke-linecap="round" stroke-linejoin="round" stroke-miterlimit="10"/><line style="" x1="2.315" y1="-10.925" x2="3.649" y2="-15.258" fill="none" stroke="#000000" stroke-width="3" stroke-linecap="round" stroke-linejoin="round" stroke-miterlimit="10"/></g><polygon style="" points="16.649,-15.061 -26.685,-15.061 -26.685,-17.288 16.649,-17.288  " fill="#F2F2F2"/></symbol><g style="" display="none"><rect x="-1097" y="-137" style="" width="1222" height="1226" display="inline" fill="#A5C6A3" stroke="#000000" stroke-width="3" stroke-miterlimit="3"/></g><g><path style="" d="M27.351,65.824c4.945,0,8.968-4.023,8.968-8.968s-4.023-8.968-8.968-8.968s-8.968,4.023-8.968,8.968   S22.406,65.824,27.351,65.824z" fill="none"/><path style="" d="M86.243,10.344H47.144c-3.135,0-5.686,2.551-5.686,5.687v26.143c0,3.135,2.551,5.687,5.686,5.687h5.017   l7.197,7.998c1.48-1.724,4.173-4.816,6.715-7.515l0.454-0.483h19.716c3.135,0,5.686-2.551,5.686-5.687V16.03   C91.93,12.895,89.379,10.344,86.243,10.344z" fill="none"/><path d="M15.313,56.856c0,6.638,5.4,12.038,12.038,12.038s12.038-5.4,12.038-12.038s-5.4-12.038-12.038-12.038   S15.313,50.219,15.313,56.856z M27.351,47.889c4.945,0,8.968,4.023,8.968,8.968s-4.023,8.968-8.968,8.968s-8.968-4.023-8.968-8.968   S22.406,47.889,27.351,47.889z"/><path d="M67.997,71.254h-32.2l-0.787,2.177c-0.857-0.152-1.733-0.246-2.633-0.246H22.324c-8.295,0-15.042,6.748-15.042,15.042h3.07   c0,0,0,0,0,0c0-6.601,5.37-11.972,11.972-11.972h10.054c0.534,0,1.055,0.047,1.571,0.115l-2.84,7.861h-11.95v1.535v1.535h10.684   h3.421l4.689-12.978h25.203l-7.223,15.332h-9.708H5v3.07h89.819v-3.07H59.326L67.997,71.254z"/><path d="M86.243,7.273H47.144c-4.829,0-8.757,3.929-8.757,8.757v26.143c0,4.829,3.928,8.757,8.757,8.757h3.65l8.634,9.594   l1.136-1.348c0.038-0.045,3.737-4.432,7.292-8.246h18.387c4.829,0,8.757-3.929,8.757-8.757V16.03   C95,11.202,91.072,7.273,86.243,7.273z M91.93,42.174c0,3.135-2.551,5.687-5.686,5.687H66.527l-0.454,0.483   c-2.542,2.7-5.234,5.792-6.715,7.515l-7.197-7.998h-5.017c-3.135,0-5.686-2.551-5.686-5.687V16.03c0-3.135,2.551-5.687,5.686-5.687   h39.099c3.135,0,5.686,2.551,5.686,5.687V42.174z"/></g><text x="0" y="115" fill="#000000" font-size="5px" font-weight="bold" font-family="'Helvetica Neue', Helvetica, Arial-Unicode, Arial, Sans-serif">Created by Oksana Latysheva</text><text x="0" y="120" fill="#000000" font-size="5px" font-weight="bold" font-family="'Helvetica Neue', Helvetica, Arial-Unicode, Arial, Sans-serif">from the Noun Project</text></svg>