<?xml version="1.0"?>
<svg xmlns="http://www.w3.org/2000/svg" xmlns:xlink="http://www.w3.org/1999/xlink" xmlns:svgjs="http://svgjs.com/svgjs" version="1.1" width="512" height="512" x="0" y="0" viewBox="0 0 512 512" style="enable-background:new 0 0 512 512" xml:space="preserve" class=""><g><g xmlns="http://www.w3.org/2000/svg"><g><path d="m436 512h-360c-8.284 0-15-6.716-15-15v-482c0-8.284 6.716-15 15-15h270l105 105v392c0 8.284-6.716 15-15 15z" fill="#fff4f4" data-original="#fff4f4" style="" class=""/></g><path d="m346 0h-90v512h180c8.284 0 15-6.716 15-15v-392z" fill="#f6efea" data-original="#f6efea" style="" class=""/><path clip-rule="evenodd" d="m346 0v90c0 8.284 6.716 15 15 15h90z" fill="#eee1dc" fill-rule="evenodd" data-original="#eee1dc" style="" class=""/><path clip-rule="evenodd" d="m451 105-105-105h90c8.284 0 15 6.716 15 15z" fill="#88ccee" fill-rule="evenodd" data-original="#bebcdd" style="" class=""/><g><path d="m286.04 90.001h-149.999c-8.284 0-15-6.716-15-15s6.716-15 15-15h149.999c8.284 0 15 6.716 15 15s-6.716 15-15 15z" fill="#4793ff" data-original="#4793ff" style="" class=""/></g><g><path d="m286.04 150.002h-149.999c-8.284 0-15-6.716-15-15s6.716-15 15-15h149.999c8.284 0 15 6.716 15 15s-6.716 15-15 15z" fill="#4793ff" data-original="#4793ff" style="" class=""/></g><g><path d="m376.041 332h-240c-8.284 0-15-6.716-15-15v-122c0-8.284 6.716-15 15-15h240.001c8.284 0 15 6.716 15 15v122c-.001 8.284-6.716 15-15.001 15z" fill="#afe1fa" data-original="#00ddc0" style="" class=""/></g><g><path d="m376.041 391.998h-240c-8.284 0-15-6.716-15-15s6.716-15 15-15h240c8.284 0 15 6.716 15 15s-6.715 15-15 15z" fill="#4793ff" data-original="#4793ff" style="" class=""/></g><g><path d="m376.041 451.999h-240c-8.284 0-15-6.716-15-15s6.716-15 15-15h240c8.284 0 15 6.716 15 15s-6.715 15-15 15z" fill="#4793ff" data-original="#4793ff" style="" class=""/></g><path d="m376.041 361.998h-120.041v30h120.042c8.284 0 15-6.716 15-15s-6.716-15-15.001-15z" fill="#52a3cc" data-original="#525cdd" style="" class=""/><path d="m376.041 421.999h-120.041v30h120.042c8.284 0 15-6.716 15-15s-6.716-15-15.001-15z" fill="#52a3cc" data-original="#525cdd" style="" class=""/><path d="m376.041 180h-120.041v152h120.042c8.284 0 15-6.716 15-15v-122c-.001-8.284-6.716-15-15.001-15z" fill="#afe1fa" data-original="#00c6ce" style="" class=""/><g fill="#525cdd"><path d="m286.04 120.002h-30.04v30h30.04c8.284 0 15-6.716 15-15s-6.716-15-15-15z" fill="#52a3cc" data-original="#525cdd" style="" class=""/><path d="m286.04 60.001h-30.04v30h30.04c8.284 0 15-6.716 15-15s-6.716-15-15-15z" fill="#52a3cc" data-original="#525cdd" style="" class=""/></g></g></g></svg>
