<svg width="20" height="20" viewBox="0 0 20 20" fill="none" xmlns="http://www.w3.org/2000/svg">
<circle cx="10" cy="10" r="10" fill="white"/>
<path d="M8.03125 13H6.61523V7.7168H8.03125V13ZM6.53223 6.34961C6.53223 6.13802 6.60221 5.96387 6.74219 5.82715C6.88542 5.69043 7.0791 5.62207 7.32324 5.62207C7.56413 5.62207 7.75618 5.69043 7.89941 5.82715C8.04264 5.96387 8.11426 6.13802 8.11426 6.34961C8.11426 6.56445 8.04102 6.74023 7.89453 6.87695C7.7513 7.01367 7.56087 7.08203 7.32324 7.08203C7.08561 7.08203 6.89355 7.01367 6.74707 6.87695C6.60384 6.74023 6.53223 6.56445 6.53223 6.34961ZM9.99707 7.7168L10.041 8.32715C10.4186 7.85514 10.9248 7.61914 11.5596 7.61914C12.1195 7.61914 12.5361 7.78353 12.8096 8.1123C13.083 8.44108 13.223 8.93262 13.2295 9.58691V13H11.8184V9.62109C11.8184 9.32161 11.7533 9.10514 11.623 8.97168C11.4928 8.83496 11.2764 8.7666 10.9736 8.7666C10.5765 8.7666 10.2786 8.93587 10.0801 9.27441V13H8.66895V7.7168H9.99707Z" fill="#8DCAEC"/>
</svg>
