<?xml version="1.0"?>
<svg xmlns="http://www.w3.org/2000/svg" xmlns:xlink="http://www.w3.org/1999/xlink" xmlns:svgjs="http://svgjs.com/svgjs" version="1.1" width="512" height="512" x="0" y="0" viewBox="0 0 24 24" style="enable-background:new 0 0 512 512" xml:space="preserve" class=""><g><path xmlns="http://www.w3.org/2000/svg" d="m12 24c6.617 0 12-5.383 12-12s-5.383-12-12-12-12 5.383-12 12 5.383 12 12 12zm0-22.5c5.79 0 10.5 4.71 10.5 10.5s-4.71 10.5-10.5 10.5-10.5-4.71-10.5-10.5 4.71-10.5 10.5-10.5z" fill="#52a3cc" data-original="#000000" style="" class=""/><path xmlns="http://www.w3.org/2000/svg" d="m7.896 14.155 1.568-.681-.44.441c-.141.141-.22.332-.22.53v2.935c0 .672.812.998 1.28.53l1.574-1.574 3.43 1.715c.444.222.981-.041 1.073-.537l1.957-10.761c.103-.579-.467-1.047-1.012-.833l-12.716 4.977c-.57.222-.646 1.002-.13 1.331l2.934 1.872c.21.134.475.155.702.055zm8.506-6.347-1.537 8.455-3.02-1.509c-.292-.146-.64-.085-.865.141l-.676.676v-.813l3.007-3.007c.583-.583-.073-1.545-.829-1.218l-4.817 2.09-1.354-.864z" fill="#52a3cc" data-original="#000000" style="" class=""/></g></svg>
