<svg width="24" height="24" viewBox="0 0 24 24" fill="none" xmlns="http://www.w3.org/2000/svg">
<path d="M12 24C18.617 24 24 18.617 24 12C24 5.383 18.617 0 12 0C5.383 0 0 5.383 0 12C0 18.617 5.383 24 12 24ZM12 1.5C17.79 1.5 22.5 6.21 22.5 12C22.5 17.79 17.79 22.5 12 22.5C6.21 22.5 1.5 17.79 1.5 12C1.5 6.21 6.21 1.5 12 1.5Z" fill="white"/>
<path d="M7.89597 14.155L9.46397 13.474L9.02397 13.915C8.88297 14.056 8.80397 14.247 8.80397 14.445V17.38C8.80397 18.052 9.61597 18.378 10.084 17.91L11.658 16.336L15.088 18.051C15.532 18.273 16.069 18.01 16.161 17.514L18.118 6.75301C18.221 6.17401 17.651 5.70601 17.106 5.92001L4.38997 10.897C3.81997 11.119 3.74397 11.899 4.25997 12.228L7.19397 14.1C7.40397 14.234 7.66897 14.255 7.89597 14.155ZM16.402 7.80801L14.865 16.263L11.845 14.754C11.553 14.608 11.205 14.669 10.98 14.895L10.304 15.571V14.758L13.311 11.751C13.894 11.168 13.238 10.206 12.482 10.533L7.66497 12.623L6.31097 11.759L16.402 7.80801Z" fill="white"/>
</svg>
