<svg width="24" height="24" viewBox="0 0 24 24" fill="none" xmlns="http://www.w3.org/2000/svg">
<g clip-path="url(#clip0)">
<path fill-rule="evenodd" clip-rule="evenodd" d="M19.1503 3.26981C17.0453 1.16235 14.2459 0.00123596 11.2635 0C5.11803 0 0.116501 5.00139 0.114029 11.1485C0.113205 13.1136 0.626541 15.0318 1.60226 16.7226L0.0205078 22.5L5.93102 20.9496C7.5596 21.8379 9.39308 22.3061 11.259 22.3066H11.2636C17.4084 22.3066 22.4105 17.3048 22.4128 11.1574C22.4141 8.17822 21.2554 5.37712 19.1503 3.26981ZM11.2635 20.4237H11.2597C9.59688 20.423 7.96609 19.9762 6.54309 19.132L6.20485 18.9311L2.69746 19.8512L3.63364 16.4316L3.41322 16.081C2.48557 14.6055 1.99571 12.9001 1.99654 11.1492C1.99846 6.03987 6.15569 1.88306 11.2672 1.88306C13.7424 1.88388 16.0692 2.84903 17.8188 4.60066C19.5683 6.35229 20.5313 8.68057 20.5305 11.1568C20.5283 16.2665 16.3713 20.4237 11.2635 20.4237ZM16.3466 13.4832C16.0681 13.3437 14.6984 12.67 14.4429 12.5769C14.1878 12.4839 14.0018 12.4376 13.8163 12.7164C13.6305 12.9952 13.0967 13.6228 12.9341 13.8086C12.7715 13.9945 12.6092 14.0179 12.3306 13.8783C12.0519 13.739 11.1543 13.4447 10.0902 12.4956C9.26207 11.7569 8.703 10.8446 8.54041 10.5658C8.37808 10.2868 8.53903 10.1505 8.66263 9.99728C8.9642 9.62279 9.26619 9.23016 9.35902 9.04436C9.452 8.85841 9.40544 8.69568 9.33568 8.55629C9.26619 8.4169 8.70905 7.04567 8.47696 6.4877C8.25064 5.9447 8.02116 6.01804 7.85005 6.00952C7.68773 6.00142 7.50192 5.99977 7.31612 5.99977C7.13045 5.99977 6.8286 6.0694 6.57317 6.34845C6.31787 6.62737 5.59827 7.30124 5.59827 8.67247C5.59827 10.0437 6.59651 11.3684 6.73576 11.5543C6.87502 11.7403 8.70026 14.5541 11.4948 15.7607C12.1594 16.048 12.6783 16.2193 13.083 16.3477C13.7504 16.5597 14.3575 16.5298 14.8376 16.4581C15.3729 16.378 16.4857 15.7841 16.7181 15.1334C16.9502 14.4826 16.9502 13.9249 16.8804 13.8086C16.8109 13.6924 16.6251 13.6228 16.3466 13.4832Z" fill="white"/>
</g>
<defs>
<clipPath id="clip0">
<rect width="24" height="24" fill="white"/>
</clipPath>
</defs>
</svg>
